<svg xmlns="http://www.w3.org/2000/svg" xmlns:xlink="http://www.w3.org/1999/xlink" version="1.1" id="Layer_1" x="0px" y="0px" viewBox="2.4 -4.8 48.0 64.8" enable-background="new 0 0 48 48" xml:space="preserve" height="100px" width="100px">
<g>
	<path fill="none" stroke="#000000" stroke-width="2" stroke-linecap="round" stroke-linejoin="round" stroke-miterlimit="10" d="   M22.7,16.2l-6.5,6.5L37,43.5c0.1,0.1,0.2,0.2,0.2,0.2v0L47,47l-3.2-9.7h0c-0.1-0.1-0.1-0.2-0.2-0.2L22.7,16.2z"/>
	<path fill="none" stroke="#000000" stroke-width="2" stroke-linecap="round" stroke-linejoin="round" stroke-miterlimit="10" d="   M3.6,10.1l9.3,9.3l6.5-6.5L9.4,2.8C7.2,0.7,4,0.4,2.2,2.2C0.4,4,0.7,7.2,2.9,9.3L3.6,10.1L1,12.8l11.1,11.1"/>
</g>
<text x="0.0" y="56.4" font-size="2.4" font-weight="bold" font-family="Helvetica Neue, Helvetica, Arial-Unicode, Arial, Sans-serif" fill="#000000">Created by Creative Stall</text><text x="0.0" y="58.8" font-size="2.4" font-weight="bold" font-family="Helvetica Neue, Helvetica, Arial-Unicode, Arial, Sans-serif" fill="#000000">from the Noun Project</text></svg>