<svg xmlns="http://www.w3.org/2000/svg" xmlns:xlink="http://www.w3.org/1999/xlink" version="1.1" id="Layer_1" x="0px" y="0px" width="100px" height="100px" viewBox="5.0 -10.0 100.0 135.0" enable-background="new 0 0 100 100" xml:space="preserve">
<path d="M82.547,32.666c-1.638-5.632-5.479-11.338-10.536-15.649c-4.301-3.669-11.534-8.042-21.56-8.042  c-8.413,0-17.009,3.516-23.583,9.644c-6.645,6.194-10.455,14.351-10.455,22.38c0,7.512,2.377,14.963,6.871,21.541  c2.367,3.467,4.741,5.85,6.008,7.012v13.904c0,1.204,0.867,2.234,2.055,2.439l29.379,5.095c0.142,0.024,0.282,0.037,0.424,0.037  c0.578,0,1.145-0.203,1.594-0.581c0.56-0.471,0.883-1.165,0.883-1.895V76.106l14.653-0.879c1.315-0.078,2.341-1.174,2.328-2.495  l-0.146-16.096h5.821c0.781,0,1.518-0.369,1.984-0.996c0.469-0.625,0.612-1.433,0.391-2.183  C88.624,53.34,85.231,41.892,82.547,32.666z M50.845,51.162c-0.657,0.583-1.414,0.874-2.275,0.874c-0.889,0-1.663-0.291-2.326-0.864  c-0.664-0.571-0.996-1.379-0.996-2.412c0-0.923,0.322-1.697,0.963-2.319c0.641-0.625,1.429-0.938,2.359-0.938  c0.916,0,1.691,0.312,2.317,0.938c0.626,0.623,0.94,1.396,0.94,2.319C51.827,49.775,51.499,50.581,50.845,51.162z M59.007,30.923  c-0.503,0.938-1.1,1.738-1.793,2.412c-0.691,0.681-1.934,1.821-3.726,3.425c-0.495,0.449-0.892,0.847-1.191,1.191  c-0.298,0.339-0.521,0.654-0.667,0.938c-0.146,0.286-0.258,0.569-0.339,0.852c-0.078,0.283-0.199,0.781-0.358,1.494  c-0.277,1.519-1.145,2.275-2.602,2.275c-0.758,0-1.396-0.247-1.912-0.742c-0.519-0.498-0.779-1.23-0.779-2.209  c0-1.223,0.192-2.283,0.57-3.179c0.38-0.894,0.882-1.682,1.508-2.361c0.627-0.674,1.471-1.479,2.537-2.415  c0.932-0.818,1.605-1.433,2.02-1.848c0.416-0.415,0.768-0.876,1.049-1.387c0.285-0.51,0.428-1.062,0.428-1.66  c0-1.167-0.433-2.146-1.301-2.952c-0.867-0.803-1.986-1.199-3.355-1.199c-1.603,0-2.781,0.4-3.54,1.211  c-0.758,0.806-1.399,1.997-1.923,3.569c-0.496,1.65-1.437,2.476-2.82,2.476c-0.816,0-1.506-0.288-2.066-0.864  c-0.56-0.576-0.84-1.201-0.84-1.87c0-1.387,0.443-2.788,1.332-4.209c0.888-1.418,2.187-2.595,3.89-3.53  c1.706-0.93,3.694-1.396,5.968-1.396c2.113,0,3.977,0.388,5.596,1.172c1.616,0.776,2.866,1.836,3.749,3.179  c0.88,1.338,1.321,2.798,1.321,4.37C59.761,28.906,59.509,29.99,59.007,30.923z"/>
<text x="0.0" y="117.5" font-size="5.0" font-weight="bold" font-family="Helvetica Neue, Helvetica, Arial-Unicode, Arial, Sans-serif" fill="#000000">Created by SuperAtic LABS</text><text x="0.0" y="122.5" font-size="5.0" font-weight="bold" font-family="Helvetica Neue, Helvetica, Arial-Unicode, Arial, Sans-serif" fill="#000000">from the Noun Project</text></svg>
