<svg xmlns="http://www.w3.org/2000/svg" xmlns:xlink="http://www.w3.org/1999/xlink" version="1.1" id="Layer_1" x="0px" y="0px" width="95.301px" height="99.14px" viewBox="4.76505 -9.914 95.301 133.839" enable-background="new 0 0 95.301 99.14" xml:space="preserve">
<g>
	<rect y="11.323" width="95.301" height="10.205"/>
	<rect x="5.575" y="22.884" width="5.694" height="51.028"/>
	<rect x="83.399" y="22.884" width="5.695" height="51.028"/>
	<rect x="6.524" y="69.127" width="81.621" height="5.742"/>
	<polygon points="29.56,99.14 26.313,97.157 38.75,76.445 41.998,78.425  "/>
	<polygon points="62.261,99.14 49.822,78.425 53.069,76.445 65.508,97.157  "/>
	<polygon points="24.557,60.297 21.391,58.189 33.097,40.326 36.262,42.437  "/>
	<polygon points="44.167,54.285 31.512,42.803 34.052,39.959 46.706,51.441  "/>
	<polygon points="44.843,54.254 42.233,51.474 59.633,34.888 62.242,37.669  "/>
	<rect x="44.21" width="4.351" height="10.046"/>
	<polyline points="67.774,28.657 55.453,32.226 65.792,41.431  "/>
</g>
<text x="0.0" y="116.4895" font-size="4.957" font-weight="bold" font-family="Helvetica Neue, Helvetica, Arial-Unicode, Arial, Sans-serif" fill="#000000">Created by Aneeque Ahmed</text><text x="0.0" y="121.4465" font-size="4.957" font-weight="bold" font-family="Helvetica Neue, Helvetica, Arial-Unicode, Arial, Sans-serif" fill="#000000">from the Noun Project</text></svg>